<?xml version="1.0" standalone="no"?>
<!DOCTYPE svg PUBLIC "-//W3C//DTD SVG 20010904//EN"
 "http://www.w3.org/TR/2001/REC-SVG-20010904/DTD/svg10.dtd">
<svg version="1.0" xmlns="http://www.w3.org/2000/svg"
 width="412.000000pt" height="384.000000pt" viewBox="0 0 412.000000 384.000000"
 preserveAspectRatio="xMidYMid meet">

<g transform="translate(0.000000,384.000000) scale(0.100000,-0.100000)"
fill="#000000" stroke="none">
<path d="M0 1920 l0 -1920 835 0 c595 0 835 4 835 11 0 6 6 9 14 6 16 -6 41
39 37 67 -2 11 8 28 21 39 17 14 18 17 5 13 -11 -4 -16 -2 -11 5 3 6 22 9 40
7 19 -2 34 0 34 5 0 4 5 5 10 2 6 -3 10 1 10 9 0 9 -7 16 -17 16 -9 0 -13 3
-10 7 4 3 1 13 -6 22 -9 12 -5 11 17 -3 16 -10 25 -13 22 -7 -5 7 3 11 21 11
20 0 24 -3 14 -9 -10 -6 -2 -9 23 -9 20 0 39 4 42 9 3 5 -4 9 -14 9 -13 0 -27
14 -40 37 -12 25 -25 37 -36 35 -15 -3 -15 -2 0 16 13 16 20 17 39 8 13 -6 20
-13 17 -16 -4 -3 -8 -11 -9 -17 -3 -12 18 -16 80 -16 15 0 23 -26 18 -59 -1
-7 25 -12 57 -11 7 1 11 -1 8 -5 -10 -9 28 -31 55 -32 33 0 54 21 36 39 -16
16 11 35 29 20 8 -7 15 -6 20 2 4 7 3 9 -4 5 -6 -3 -13 -2 -17 4 -4 6 -12 7
-18 3 -8 -4 -8 -1 1 9 10 13 10 19 -3 31 -8 9 -15 19 -15 24 0 5 -6 21 -12 36
-10 21 -20 27 -48 28 -19 1 -47 2 -62 3 -15 2 -26 -2 -25 -8 1 -6 -8 -11 -20
-10 -12 0 -20 -3 -17 -8 6 -9 -56 -5 -74 6 -21 13 -14 36 12 36 14 0 28 5 32
11 4 6 -1 9 -12 8 -11 -2 -24 0 -30 4 -6 3 -26 0 -43 -9 -18 -9 -41 -14 -52
-11 -12 3 -19 0 -19 -9 0 -20 -18 -17 -30 5 -8 17 -6 20 13 23 16 2 22 9 21
26 0 12 3 22 8 22 4 0 8 7 8 15 0 8 -4 15 -9 15 -5 0 -13 9 -16 20 -5 14 -14
20 -28 18 -13 -2 -21 2 -20 9 2 7 -3 10 -10 7 -9 -3 -13 -24 -13 -67 1 -57 -1
-62 -19 -59 -11 2 -25 4 -31 4 -15 2 -5 41 14 52 10 6 12 19 7 52 -3 24 -3 53
0 64 5 17 10 18 27 9 17 -9 24 -8 32 3 11 15 111 80 131 85 56 14 107 22 143
23 24 0 57 7 73 16 34 17 51 21 119 30 25 4 50 12 55 19 9 10 92 25 165 29 14
1 31 5 38 10 7 4 29 8 49 8 43 0 88 26 144 81 65 66 81 134 34 155 -14 6 -25
16 -25 22 0 5 -7 10 -15 10 -9 0 -18 7 -21 15 -5 13 -81 56 -101 57 -4 0 -19
4 -31 9 -20 8 -25 6 -29 -11 -7 -25 -34 -33 -75 -22 -18 5 -42 7 -53 5 -78
-13 -185 -15 -214 -2 -17 8 -31 17 -31 22 0 4 -8 3 -18 -2 -25 -13 -78 -1 -95
23 -7 11 0 83 11 101 4 6 5 20 4 32 -2 13 8 38 22 56 30 39 33 63 10 88 -13
14 -21 15 -51 6 -32 -10 -38 -9 -47 7 -6 10 -29 39 -51 63 -22 25 -44 55 -49
67 -4 11 -7 70 -7 131 2 115 7 129 47 119 35 -9 58 10 72 59 16 53 10 80 -29
124 -15 18 -31 48 -35 68 -3 19 -10 35 -14 35 -9 0 -43 93 -45 125 -1 11 2 35
7 53 9 31 6 48 -17 103 -4 11 3 27 21 45 17 19 28 25 31 17 3 -7 10 -13 17
-13 16 0 94 92 116 134 9 20 24 32 40 34 14 2 32 10 40 18 9 7 25 11 36 8 22
-6 29 0 84 65 28 35 40 42 65 40 17 -2 36 1 43 5 8 5 20 2 30 -8 59 -58 84
-68 100 -40 8 14 15 10 52 -23 l42 -40 -16 -31 c-10 -19 -12 -33 -6 -37 16
-10 12 -91 -5 -105 -42 -35 2 -195 55 -195 8 0 17 -14 21 -34 8 -36 26 -54 48
-46 7 3 30 -7 50 -22 19 -16 45 -30 56 -33 13 -4 26 -23 38 -56 14 -39 27 -55
60 -75 24 -15 51 -42 62 -65 13 -25 29 -40 43 -42 13 -2 28 -12 34 -21 10 -17
48 -18 48 -2 0 4 7 8 16 8 10 0 24 -18 35 -44 10 -24 22 -42 27 -39 4 2 17 -9
27 -25 11 -16 23 -29 28 -29 8 0 77 -71 77 -81 0 -3 18 -11 40 -18 28 -8 44
-20 50 -37 16 -40 40 -24 40 27 0 11 5 30 12 42 7 12 13 37 13 55 2 39 42 87
60 72 11 -9 11 -29 -1 -88 -2 -13 -8 -21 -13 -18 -4 3 -8 -2 -8 -10 0 -9 10
-21 23 -26 12 -6 24 -23 28 -39 3 -16 9 -29 13 -29 18 1 84 73 79 85 -4 11 2
13 24 9 25 -5 35 0 69 37 47 51 51 75 16 115 -14 16 -29 41 -34 56 -9 24 -7
28 21 37 43 15 59 14 73 -6 9 -12 10 -25 2 -46 -6 -19 -6 -41 1 -65 22 -80 -2
-265 -37 -287 -5 -3 -25 -33 -44 -68 -33 -59 -35 -69 -42 -192 -6 -101 -11
-137 -26 -161 -14 -22 -19 -50 -19 -97 0 -62 -2 -68 -35 -101 -19 -20 -35 -43
-35 -52 0 -9 -9 -27 -20 -41 -11 -14 -20 -31 -20 -39 0 -30 -55 -118 -113
-177 -82 -86 -159 -181 -170 -209 -4 -13 -28 -43 -52 -68 -43 -45 -43 -45 -49
-135 -3 -49 -8 -114 -12 -142 l-7 -53 542 0 541 0 0 1328 0 1328 -41 27 c-36
24 -46 26 -101 20 -39 -4 -68 -13 -80 -25 -17 -17 -17 -19 3 -39 26 -26 20
-44 -17 -45 -25 0 -29 -4 -26 -25 1 -13 14 -34 30 -46 15 -12 35 -29 45 -38 9
-8 31 -15 47 -15 25 0 30 -4 30 -23 0 -13 -5 -28 -11 -34 -12 -12 -8 -134 5
-164 6 -13 1 -15 -22 -11 -18 2 -33 -2 -41 -12 -8 -9 -20 -16 -27 -16 -9 0
-14 -11 -14 -30 0 -26 -5 -31 -42 -41 -24 -7 -45 -12 -48 -11 -8 1 -11 -30
-13 -108 -2 -56 -5 -65 -22 -68 -11 -2 -25 -9 -32 -14 -9 -7 -11 -4 -8 12 2
12 -2 23 -10 27 -28 10 -17 41 42 121 l23 29 -25 29 c-27 31 -40 79 -33 118 3
16 -2 27 -15 35 -14 9 -16 16 -8 24 14 14 15 47 1 47 -5 0 -10 -9 -10 -19 0
-21 -18 -31 -46 -27 -12 2 -18 13 -20 36 -2 19 -14 44 -29 60 -15 16 -24 33
-21 39 4 6 0 11 -10 11 -12 0 -15 6 -11 20 4 14 -1 25 -14 33 -10 6 -19 22
-19 34 0 18 6 23 25 23 25 0 35 23 15 35 -12 8 29 55 49 55 9 0 43 21 76 46
50 37 137 91 215 133 8 4 29 15 45 24 17 9 60 32 98 52 l67 35 0 435 0 435
-2060 0 -2060 0 0 -1920z m1249 1834 c12 -15 21 -34 21 -44 0 -9 19 -50 41
-91 23 -41 52 -93 65 -117 13 -24 35 -60 49 -80 14 -20 25 -41 25 -47 0 -6 11
-26 24 -45 28 -43 38 -96 19 -111 -17 -15 -17 -38 2 -83 18 -42 5 -48 -28 -13
-19 20 -82 96 -97 117 -3 4 -18 11 -35 17 -16 5 -38 23 -47 39 -15 25 -16 35
-6 61 10 26 9 38 -5 70 -9 21 -19 54 -23 73 -3 19 -12 46 -19 60 -7 14 -15 48
-19 75 -4 28 -12 65 -17 83 -20 61 12 84 50 36z m1309 -1047 c2 -19 -1 -27
-12 -27 -11 0 -16 10 -16 31 0 38 24 35 28 -4z m138 -49 c4 -7 9 -28 11 -48 2
-33 2 -33 -8 -10 -6 14 -15 33 -20 42 -5 10 -9 20 -9 23 0 10 19 5 26 -7z
m1372 -85 c-3 -32 -44 -46 -54 -19 -10 26 4 46 31 46 23 0 26 -4 23 -27z
m-2521 -195 c-3 -8 -6 -5 -6 6 -1 11 2 17 5 13 3 -3 4 -12 1 -19z m-13 -14
c13 -5 14 -9 5 -20 -10 -12 -9 -13 5 -8 9 3 16 13 16 21 0 8 5 11 10 8 17 -11
11 -31 -13 -42 -29 -13 -57 0 -57 27 0 21 8 24 34 14z m1906 -389 c15 -18 1
-53 -28 -72 -16 -9 -17 -6 -14 26 6 64 17 76 42 46z m-1826 -1596 c-3 -5 -9
-7 -13 -5 -4 3 -8 -1 -8 -9 0 -11 4 -12 14 -4 7 6 20 9 28 5 17 -6 21 -36 5
-36 -5 0 -10 5 -10 11 0 6 -8 8 -19 4 -10 -3 -23 1 -30 9 -16 19 -4 45 20 39
10 -3 16 -9 13 -14z m119 -34 c-3 -8 -13 -15 -22 -14 -10 0 -11 2 -3 6 6 2 12
11 12 19 0 9 4 13 10 9 5 -3 7 -12 3 -20z m50 -133 c21 -23 13 -32 -29 -32
-40 0 -54 27 -21 40 31 12 32 12 50 -8z m-185 -127 c0 -39 -12 -45 -28 -16
-16 30 -12 51 9 51 15 0 19 -7 19 -35z m-65 -4 c-2 -6 2 -10 8 -9 6 2 14 -3
17 -11 3 -10 0 -12 -11 -8 -8 3 -25 -4 -38 -16 -19 -18 -22 -19 -16 -3 4 10
10 29 13 42 6 24 32 29 27 5z"/>
<path d="M4040 2782 c0 -17 21 -25 31 -13 5 6 6 9 3 6 -4 -3 -13 0 -21 6 -9 8
-13 8 -13 1z"/>
<path d="M2310 1927 c-38 -12 -69 -43 -70 -68 0 -9 -7 -29 -15 -45 -8 -16 -17
-48 -21 -71 -10 -69 23 -91 87 -58 80 42 135 37 314 -29 44 -15 73 -22 79 -16
6 6 16 4 26 -5 14 -12 19 -12 44 0 15 8 32 12 37 9 14 -8 39 15 39 35 -1 9 -9
26 -19 39 -25 29 -160 112 -182 112 -10 0 -21 5 -25 11 -3 6 -27 21 -53 33
-25 12 -58 29 -72 39 -33 22 -122 29 -169 14z"/>
<path d="M1783 564 c-7 -12 -8 -26 -3 -34 13 -21 22 -7 18 27 -3 27 -4 27 -15
7z"/>
<path d="M1880 441 c13 -26 53 -29 48 -3 -2 10 -14 18 -31 20 -26 3 -28 2 -17
-17z"/>
</g>
</svg>
